<svg width="81" height="71" viewBox="0 0 81 71" fill="none" xmlns="http://www.w3.org/2000/svg">
<g clip-path="url(#clip0_101_156)">
<path d="M0 66.4863V7.1798L75.9793 0L81 4.51368V63.8176L5.02322 71L0 66.4863Z" fill="#00FFB6"/>
<path d="M75.0993 2.66101L39.4956 6.0251V7.8162L37.6766 6.19703L2.56543 9.51493V65.3419L5.90056 68.339L57.8849 63.425V61.6416L59.6962 63.2557L78.4345 61.4826V5.65816L75.0993 2.66101Z" fill="#052065"/>
<path d="M13.3842 11.8192V17.4491L10.7417 17.7057V14.7163L8.54309 14.9293V18.5679L13.3842 20.903V29.8483L10.7417 30.1049L8.54309 30.3179L5.90063 30.5745V23.505L8.54309 23.2484V27.6748L10.7417 27.4618V22.9892L11.555 22.9122L11.5062 22.8917L10.7366 22.5273L5.90063 20.1922V12.5454L8.54309 12.2888L10.7417 12.0758L13.3842 11.8192Z" fill="#00FFB6"/>
<path d="M19.6157 11.2162L22.2582 10.9596V28.9964L19.6157 29.253V22.1296L20.4264 22.0526L20.3802 22.0321L19.6106 21.6677L17.4145 20.6054V29.4582L14.7747 29.7148V11.6832L17.4145 11.4266L19.6157 11.2162ZM19.6157 18.7706V13.8567L17.4145 14.0696V17.7057L19.6157 18.7706Z" fill="#00FFB6"/>
<path d="M31.1322 23.4255V28.129L28.4897 28.3857L26.2886 28.5986L23.6487 28.8552V10.8236L26.2886 10.567V25.9633L28.4897 25.7503V22.1733L31.1322 23.4255Z" fill="#00FFB6"/>
<path d="M37.5768 12.1169L35.1421 12.353V27.7493L32.5022 28.0059V12.6096L30.0933 12.8431V10.2001L32.5022 9.96656L35.1421 9.70995L37.5768 9.47388V12.1169Z" fill="#00FFB6"/>
<path d="M47.3485 14.1364V11.17L45.1473 11.383V24.1209L47.3485 23.9079V16.0814L49.9884 17.3645V26.302L47.3485 26.5586L45.1473 26.7742L42.5049 27.0308V8.99658L45.1473 8.73997L47.3485 8.52699L49.9884 8.27039V13.8798L47.3485 14.1364Z" fill="#00FFB6"/>
<path d="M54.2292 25.8914L51.5894 26.148V8.11641L54.2292 7.8598V25.8914Z" fill="#00FFB6"/>
<path d="M62.8927 9.66378L60.4581 9.89986V25.2961L57.8182 25.5528V10.1565L55.4092 10.39V7.74694L57.8182 7.51343L60.4581 7.25683L62.8927 7.02075V9.66378Z" fill="#00FFB6"/>
<path d="M71.7643 6.15851V13.8105L70.5149 14.6496L69.3322 15.4348V24.416L66.6923 24.6726V16.1661L67.503 16.0866L65.5327 15.1397L64.4193 14.6265L64.2808 14.5469V6.88727L66.9232 6.63066V12.9124L68.011 13.4538L69.1244 12.684V6.41511L71.7643 6.15851Z" fill="#00FFB6"/>
<path d="M17.1169 33.5613V60.5793L13.1584 60.9642V50.2945L14.3719 50.1765L14.3026 50.1483L13.1584 49.5991L9.85918 48.0082V61.2747L5.90063 61.6673V34.6416L9.85918 34.2593V43.6716L13.1584 45.26V33.9437L17.1169 33.5613Z" fill="#00FFB6"/>
<path d="M30.8782 36.1813V59.2423L26.9196 59.6247L23.6204 59.9454L19.6619 60.3278V33.315L23.6204 32.9301L26.9196 32.6119L30.8782 32.227V36.1813ZM26.9196 55.6832V36.5687L23.6204 36.8895V55.9912L26.9196 55.6832Z" fill="#00FFB6"/>
<path d="M44.8548 34.8315V57.8926L40.8963 58.275L37.5997 58.5957L33.6411 58.9781V31.9601L37.5997 31.5752L40.8963 31.257L44.8548 30.8721V34.8315ZM40.8963 54.3155V35.2165L37.5997 35.5346V54.6363L40.8963 54.3155Z" fill="#00FFB6"/>
<path d="M71.7643 28.2651V36.6945L67.8057 37.0769V32.6068L64.5091 32.9276V38.3804L71.7643 41.8805V55.2856L67.8057 55.6679L64.5091 55.9887L60.5454 56.371V45.7784L64.504 45.396V52.0292L67.8006 51.7085V45.006L69.0166 44.8879L68.9474 44.8597L67.8006 44.3106L60.5454 40.8131V29.3531L64.504 28.9682L67.8006 28.65L71.7643 28.2651Z" fill="#00FFB6"/>
<path d="M54.5087 29.9381L51.2095 30.2563L47.251 30.6412V57.6592L51.2095 57.2768V44.7468L50.6015 43.7537L51.2095 44.0437L55.5324 46.1145L55.4528 46.0914L58.4621 47.5412V29.5532L54.5087 29.9381ZM54.5087 41.2929L51.2095 39.7045V34.2157L54.5087 33.8975V41.2929Z" fill="#00FFB6"/>
</g>
<defs>
<clipPath id="clip0_101_156">
<rect width="81" height="71" fill="white"/>
</clipPath>
</defs>
</svg>
