<svg width="66" height="63" viewBox="0 0 66 63" fill="none" xmlns="http://www.w3.org/2000/svg">
<path d="M30.2372 0.309739L64.3475 5.52512L51.0336 37.3599L45.6266 27.7268C44.3321 28.3773 21.9441 40.0112 14.1652 61.9521C9.70596 39.6784 24.3104 20.7013 35.6443 9.94278L30.2372 0.309739Z" fill="black"/>
<path d="M14.4187 11.3444L18.0898 9.86173C18.8732 9.54448 18.8732 8.4352 18.0898 8.11796L14.4187 6.6353C14.1619 6.53171 13.9655 6.32021 13.8792 6.05905L12.0836 0.644216C11.7987 -0.214739 10.5837 -0.214739 10.2988 0.644216L8.5032 6.05905C8.41688 6.32019 8.21833 6.53169 7.96366 6.6353L4.29265 8.11796C3.50922 8.43521 3.50922 9.54449 4.29265 9.86173L7.96366 11.3444C8.21833 11.448 8.41688 11.6595 8.5032 11.9206L10.2988 17.3333C10.5837 18.1923 11.7987 18.1923 12.0836 17.3333L13.8792 11.9206C13.9655 11.6573 14.1619 11.448 14.4187 11.3444Z" fill="black"/>
<path d="M60.4296 49.3103L62.3911 48.4856C62.8097 48.3091 62.8097 47.6921 62.3911 47.5156L60.4296 46.6909C60.2924 46.6333 60.1875 46.5156 60.1413 46.3703L59.1819 43.3583C59.0297 42.8806 58.3805 42.8806 58.2282 43.3583L57.2688 46.3703C57.2227 46.5156 57.1166 46.6333 56.9805 46.6909L55.019 47.5156C54.6004 47.6921 54.6004 48.3091 55.019 48.4856L56.9805 49.3103C57.1166 49.3679 57.2227 49.4856 57.2688 49.6308L58.2282 52.6417C58.3805 53.1194 59.0297 53.1194 59.1819 52.6417L60.1413 49.6308C60.1875 49.4844 60.2924 49.3679 60.4296 49.3103Z" fill="black"/>
</svg>
